<svg xmlns="http://www.w3.org/2000/svg" width="1400" height="673" viewBox="0 0 1400 673" version="1.1">
	<path d="M 792 2.242 C 788.795 3.962, 785.449 7.367, 780.371 14.078 C 765.536 33.686, 733.167 80.888, 687.506 149.500 C 622.522 247.148, 585.266 301.755, 580.391 306.500 C 573.691 313.021, 546.565 327.596, 525.443 336.023 C 501.777 345.464, 480.067 352.317, 473.520 352.413 L 467.541 352.500 464.262 347.624 C 460.984 342.750, 458.717 336.271, 457.476 328.228 L 456.817 323.956 465.280 319.990 C 469.935 317.809, 475.963 315.512, 478.676 314.885 C 484.185 313.614, 485.296 314.013, 494.359 320.514 C 499.884 324.478, 502.206 324.782, 506.580 322.114 C 510.969 319.438, 513.441 313.761, 513.382 306.500 C 513.236 288.828, 495.629 277.746, 470.163 279.297 C 428.993 281.805, 371.638 310.896, 357.895 336.239 C 354.648 342.227, 354.500 342.958, 354.500 353 C 354.500 362.815, 354.718 363.965, 357.839 370.622 C 360.009 375.251, 363.073 379.615, 366.589 383.088 C 376.305 392.683, 374.369 395.993, 353 406.324 C 303.067 430.463, 260.065 462.419, 238.035 491.760 C 217.829 518.671, 195.335 563.454, 187.347 592.674 C 183.817 605.587, 183.611 622.361, 186.837 634.300 C 191.424 651.280, 202.183 665.127, 214.683 670.138 C 223.111 673.517, 241.203 673.518, 252 670.139 C 284.147 660.079, 315.218 632.761, 351.680 582.500 C 363.775 565.827, 394.491 520.338, 404.686 504 C 416.048 485.792, 436.981 449.428, 453.286 419.572 L 465.808 396.643 476.654 391.738 C 482.619 389.041, 496.050 383.324, 506.500 379.035 C 516.950 374.746, 530.645 368.933, 536.933 366.118 C 543.220 363.303, 548.673 361, 549.048 361 C 549.424 361, 548.892 364.028, 547.866 367.728 C 545.257 377.135, 545.440 381.881, 548.593 386.610 C 556.938 399.127, 570.838 401.911, 587.718 394.446 C 594.243 391.560, 602.546 383.906, 604.031 379.407 C 606.017 373.389, 602.835 367.677, 594.672 362.608 C 593.116 361.642, 592.047 360.322, 592.297 359.676 C 593.259 357.179, 690.496 208.142, 733.989 142.500 C 786.700 62.946, 811.806 24.290, 815.506 16.988 C 820.942 6.260, 817.264 1.075, 803.638 0.256 C 797.504 -0.112, 795.867 0.167, 792 2.242 M 196.500 51.628 C 190.406 52.581, 183.111 55.428, 167.500 62.947 C 123.594 84.093, 70.504 115.860, 45.814 135.759 C 10.906 163.893, -1.294 191.032, 10.150 215.088 C 15.698 226.748, 26.928 239.627, 39.671 248.942 L 42.843 251.260 32.976 262.124 C 20.428 275.942, 15.223 283.268, 9.582 295.056 C 2.574 309.702, 0.593 318.684, 0.553 336 C 0.528 347.278, 0.926 351.824, 2.348 356.457 C 9.291 379.081, 23.977 389.816, 54.500 394.578 C 75.310 397.824, 118.617 396.076, 135.657 391.302 C 138.871 390.401, 143.075 389.628, 145 389.582 C 148.171 389.508, 148.531 389.782, 148.830 392.500 C 149.262 396.425, 152.114 399.375, 157.848 401.829 C 168.896 406.556, 181.227 406.969, 186.540 402.790 C 188.015 401.630, 200.011 387.214, 213.197 370.754 C 226.384 354.294, 238.872 339.128, 240.948 337.052 C 245.836 332.164, 254.225 328.243, 263.655 326.439 C 291.035 321.200, 294.537 330.177, 272.917 350.176 C 263.879 358.536, 255.609 368.830, 251.769 376.500 C 247.914 384.202, 249.064 392.204, 256.012 406.025 C 260.566 415.081, 263.453 417.462, 271.169 418.523 C 278.427 419.521, 281.101 417.542, 287.414 406.500 C 289.300 403.200, 296.344 394.425, 303.066 387 C 316.195 372.499, 331.878 350.033, 339.313 335.075 L 343.500 326.651 343.500 313.575 C 343.500 301.518, 343.294 300.060, 340.849 294.845 C 337.577 287.866, 331.600 281.933, 324.160 278.279 C 319.450 275.967, 317.221 275.504, 310.880 275.526 C 303.586 275.551, 302.716 275.819, 290.557 281.776 C 283.570 285.199, 276.772 288, 275.450 288 C 272.755 288, 270.539 285.147, 269.554 280.410 C 268.150 273.656, 248.826 260, 240.675 260 C 235.732 260, 232.752 262.907, 228.132 272.234 C 221.234 286.157, 212.860 298.058, 191.844 323.802 C 180.755 337.386, 171.416 348.810, 171.091 349.189 C 170.340 350.064, 130.811 358.626, 121.500 359.931 C 91.313 364.160, 55.350 362.789, 44 356.976 C 29.307 349.450, 30.250 333.769, 46.794 310.500 C 68.422 280.079, 104.803 256.475, 152.500 241.915 C 172.273 235.879, 196.049 227.297, 199 225.131 C 202.084 222.867, 203.502 219.137, 202.618 215.615 C 201.700 211.956, 183.394 193.480, 178.775 191.551 C 170.475 188.082, 161.284 190.283, 126 204.190 C 111.975 209.717, 96.225 215.336, 91 216.676 C 79.371 219.659, 64.885 220.054, 58.069 217.573 C 45.035 212.831, 40.609 202.445, 46.926 191.431 C 52.973 180.889, 64.980 170.670, 104 142.852 C 138.099 118.544, 137.290 119.028, 196.500 87.506 C 237.903 65.464, 241 63.653, 241 61.483 C 241 59.304, 235.013 55.346, 229 53.548 C 223.537 51.915, 202.582 50.677, 196.500 51.628 M 1055.162 185.992 C 1044.633 189.780, 1034.164 197.222, 1020.443 210.673 C 1015.461 215.556, 1008.855 222.914, 1005.762 227.025 C 999.430 235.442, 987.004 255.900, 979.509 270.247 L 974.519 279.801 958.009 284.385 C 923.311 294.018, 911.910 296, 891.188 296 L 878.824 296 879.455 291.750 C 881.719 276.505, 885.485 266.289, 891.743 258.415 C 899.971 248.064, 909.084 244.447, 919.774 247.288 C 945.150 254.034, 945.874 254.078, 948.482 249.035 C 949.317 247.420, 950 243.817, 950 241.027 C 950 236.461, 949.582 235.502, 945.808 231.407 C 938.683 223.678, 930.598 219.946, 916.674 217.959 C 900.850 215.702, 888.401 220.576, 874.352 234.530 C 859.703 249.080, 855.037 257.620, 850.327 278.500 C 845.462 300.065, 843.984 301.559, 817.183 312.004 C 806.788 316.055, 803.031 318.065, 798.872 321.800 C 789.043 330.629, 782.136 344.841, 780.455 359.694 C 778.487 377.086, 790.502 397.047, 807.979 405.423 C 817.453 409.963, 824.326 411.313, 835.442 410.818 C 843.117 410.477, 845.318 409.968, 849.859 407.489 C 859.519 402.215, 866.016 392.057, 870.062 375.901 C 871.656 369.539, 872.301 363.025, 872.721 349.067 C 873.470 324.158, 872.396 325.094, 903.051 322.625 C 912.648 321.852, 920.666 321.373, 920.869 321.562 C 921.072 321.750, 919.596 323.822, 917.590 326.166 C 912.819 331.740, 908.421 340.656, 906.952 347.733 C 905.578 354.348, 906.742 363.563, 910.076 372.475 C 914.567 384.476, 928 394.470, 943.055 397.009 C 953.277 398.733, 968.105 397.854, 975.202 395.103 C 982.206 392.388, 989.688 385.827, 993.255 379.273 C 998.451 369.725, 999.094 364.887, 998.872 337 C 998.607 303.772, 998.066 305.109, 1015.500 295.947 C 1038.577 283.819, 1055.682 272.261, 1066.478 261.500 C 1072.027 255.969, 1074.687 252.192, 1079.156 243.500 C 1089.685 223.022, 1092.028 208.708, 1086.648 197.714 C 1080.858 185.878, 1068.386 181.235, 1055.162 185.992 M 1047.483 226.909 C 1039.430 231.961, 1029.904 244.138, 1026.081 254.266 C 1025.037 257.032, 1025.038 257.032, 1027.769 255.619 C 1037.930 250.364, 1047.164 241.118, 1051.223 232.134 C 1052.890 228.445, 1052.985 227.556, 1051.831 226.403 C 1050.678 225.250, 1050.004 225.328, 1047.483 226.909 M 1120.487 241.799 C 1111.947 244.752, 1105.846 248.966, 1096.443 258.407 C 1079.214 275.703, 1056.545 308.902, 1042.521 337.374 C 1026.896 369.099, 1024.277 379.684, 1029.377 390.500 C 1033.942 400.180, 1039.919 403.332, 1053.500 403.221 C 1070.762 403.079, 1081.683 397.418, 1094.726 381.852 C 1104 370.784, 1116.707 354.424, 1119.644 349.772 C 1120.962 347.683, 1123.121 345.757, 1124.542 345.400 C 1125.940 345.049, 1133.589 345.088, 1141.541 345.485 C 1152.996 346.058, 1156 346.502, 1156 347.622 C 1156 348.400, 1154.365 352.966, 1152.368 357.768 C 1147.435 369.625, 1146.988 374.873, 1150.464 380.126 C 1154.037 385.524, 1161.394 388.977, 1169.352 388.990 C 1176.730 389.003, 1187.157 385.565, 1209.571 375.730 C 1246.190 359.663, 1245.971 359.619, 1268.158 387.457 C 1279.250 401.374, 1286.493 405.331, 1296.928 403.176 C 1300.098 402.521, 1305.564 400.818, 1309.075 399.391 C 1317.535 395.954, 1398.260 358.061, 1399.349 357.016 C 1400.976 355.456, 1398.950 352.340, 1394.739 349.928 C 1390.988 347.780, 1389.406 347.519, 1381 347.669 C 1366.585 347.925, 1358.440 350.483, 1335.500 361.958 C 1314.338 372.545, 1304.963 375.790, 1298.864 374.638 C 1294.127 373.744, 1287.976 368.261, 1277.937 355.984 C 1266.692 342.230, 1262.677 339.405, 1250.500 336.674 C 1246.650 335.811, 1237.425 334.583, 1230 333.946 C 1222.575 333.309, 1216.153 332.466, 1215.729 332.073 C 1215.305 331.680, 1216.085 329.815, 1217.463 327.929 C 1223.983 319.003, 1224.124 318.677, 1223.740 313.446 C 1223.212 306.265, 1219.703 299.756, 1213.510 294.464 L 1208.196 289.924 1188.848 298.532 C 1165.961 308.715, 1159.986 310.475, 1151.109 309.646 C 1147.593 309.317, 1144.555 308.888, 1144.359 308.692 C 1144.163 308.496, 1146.485 303.582, 1149.519 297.772 C 1156.541 284.326, 1159 277.129, 1159 270.022 C 1159 261.905, 1156.561 255.775, 1150.841 249.517 C 1142.759 240.673, 1131.800 237.887, 1120.487 241.799 M 731.335 258.033 C 713.302 261.265, 692.276 273.614, 675.830 290.633 C 660.938 306.042, 646.928 329.540, 642.819 346 C 640.919 353.615, 640.816 355.333, 641.835 362.500 C 644.684 382.533, 658.971 397.760, 678.799 401.895 C 688.138 403.842, 702.660 403.275, 713.435 400.542 C 730.657 396.173, 748.889 387.096, 751.084 381.798 C 753.770 375.313, 746.348 366.387, 739 367.267 C 737.075 367.497, 731 368.928, 725.500 370.447 C 711.932 374.195, 699.431 374.468, 693.153 371.155 C 690.762 369.893, 689.074 368.593, 689.400 368.266 C 689.727 367.939, 693.933 366.673, 698.747 365.452 C 721.202 359.758, 736.805 351.195, 751.500 336.500 C 762.659 325.341, 768.124 316.778, 772.563 303.500 C 777.411 288.997, 775.706 277.338, 767.382 268.080 C 761.112 261.106, 754.169 257.912, 744.304 257.463 C 740.012 257.268, 734.176 257.524, 731.335 258.033 M 719.500 304.569 C 717.850 305.426, 715.261 307.308, 713.747 308.753 C 710.499 311.852, 706.576 319.505, 707.483 320.973 C 709.497 324.231, 718.394 320.074, 724.217 313.154 C 727.968 308.696, 728.656 305.953, 726.431 304.326 C 724.114 302.632, 723.170 302.665, 719.500 304.569 M 956.441 336.567 C 946.632 342.457, 942.891 347.117, 940.905 355.919 C 939.179 363.574, 946.192 370.308, 953.887 368.382 C 962.764 366.161, 970.108 346.305, 966.025 335.565 C 964.742 332.191, 963.517 332.319, 956.441 336.567 M 831.348 345.062 C 823.899 348.959, 816.259 356.402, 814.837 361.149 C 814.234 363.161, 814.030 366.347, 814.383 368.228 C 815.542 374.408, 823.351 379.720, 829.564 378.554 C 835.824 377.380, 841.939 367.467, 841.978 358.432 C 842.001 353.198, 839.616 343.499, 838.072 342.545 C 837.591 342.247, 834.565 343.380, 831.348 345.062 M 402.500 424.403 C 371.569 435.223, 339.880 452.944, 311.898 475.067 C 298.549 485.621, 273.652 510.518, 262.965 524 C 251.471 538.499, 237.943 559.349, 231.505 572.486 C 223.881 588.044, 220.901 597.645, 220.324 608.500 C 219.899 616.511, 220.102 617.994, 222.173 622 C 228.367 633.979, 246.062 633.932, 264.623 621.886 C 278.803 612.685, 314.273 574.611, 339.858 541.129 C 348.796 529.431, 368.563 499.714, 380.518 480 C 391.726 461.519, 415.154 420.814, 414.782 420.468 C 414.627 420.324, 409.100 422.094, 402.500 424.403" stroke="none" fill="black" fill-rule="evenodd"/>
</svg>